HIERARCHY
ROOT Hips
{
	OFFSET 0.000000 8.830580 0.000000
	CHANNELS 6 Xposition Yposition Zposition Zrotation Yrotation Xrotation 
	JOINT Spine
	{
		OFFSET 0.000000 0.010000 0.000000
		CHANNELS 3 Zrotation Yrotation Xrotation
		JOINT Spine1
		{
			OFFSET 0.000000 2.459130 0.000000
			CHANNELS 3 Zrotation Yrotation Xrotation
			JOINT Neck
			{
				OFFSET 0.000000 2.484630 0.000000
				CHANNELS 3 Zrotation Yrotation Xrotation
				JOINT Head_virtual
				{
					OFFSET 0.000000 0.000000 0.000000
					CHANNELS 3 Zrotation Yrotation Xrotation
					JOINT Head
					{
						OFFSET 0.000000 0.927525 0.000000
						CHANNELS 3 Zrotation Yrotation Xrotation
						End Site
						{
							OFFSET 0.000000 0.000000 0.000000
						}
					}
				}
				JOINT LeftUpArm_virtual
				{
					OFFSET 0.000000 0.000000 0.000000
					CHANNELS 3 Zrotation Yrotation Xrotation
					JOINT LeftUpArm
					{
						OFFSET 1.248820 0.000000 0.000000
						CHANNELS 3 Zrotation Yrotation Xrotation
						JOINT LeftForeArm
						{
							OFFSET 2.597580 0.000000 0.000000
							CHANNELS 3 Zrotation Yrotation Xrotation
							JOINT LeftHand
							{
								OFFSET 2.455420 0.000000 0.000000
								CHANNELS 3 Zrotation Yrotation Xrotation
								End Site
								{
									OFFSET 0.000000 0.000000 0.000000
								}
							}
						}
					}
				}
				JOINT RightUpArm_virtual
				{
					OFFSET -0.000000 -0.000000 -0.000000
					CHANNELS 3 Zrotation Yrotation Xrotation
					JOINT RightUpArm
					{
						OFFSET -1.248820 -0.000000 -0.000000
						CHANNELS 3 Zrotation Yrotation Xrotation
						JOINT RightForeArm
						{
							OFFSET -2.597580 -0.000000 -0.000000
							CHANNELS 3 Zrotation Yrotation Xrotation
							JOINT RightHand
							{
								OFFSET -2.455420 -0.000000 -0.000000
								CHANNELS 3 Zrotation Yrotation Xrotation
								End Site
								{
									OFFSET 0.000000 0.000000 0.000000
								}
							}
						}
					}
				}
			}
		}
	}
	JOINT LeftUpLeg
	{
		OFFSET 1.271939 0.000000 0.000000
		CHANNELS 3 Zrotation Yrotation Xrotation
		JOINT LeftLowLeg
		{
			OFFSET 0.000000 -4.342910 0.000000
			CHANNELS 3 Zrotation Yrotation Xrotation
			JOINT LeftFoot
			{
				OFFSET 0.000000 -4.487670 0.000000
				CHANNELS 3 Zrotation Yrotation Xrotation
				JOINT LeftToeBase
				{
					OFFSET 0.000000 0.000000 1.515070
					CHANNELS 3 Zrotation Yrotation Xrotation
					End Site
					{
						OFFSET 0.000000 0.000000 0.000000
					}
				}
			}
		}
	}
	JOINT RightUpLeg
	{
		OFFSET -1.271939 0.000000 0.000000
		CHANNELS 3 Zrotation Yrotation Xrotation
		JOINT RightLowLeg
		{
			OFFSET 0.000000 -4.342910 0.000000
			CHANNELS 3 Zrotation Yrotation Xrotation
			JOINT RightFoot
			{
				OFFSET 0.000000 -4.487670 0.000000
				CHANNELS 3 Zrotation Yrotation Xrotation
				JOINT RightToeBase
				{
					OFFSET 0.000000 0.000000 1.515070
					CHANNELS 3 Zrotation Yrotation Xrotation
					End Site
					{
						OFFSET 0.000000 0.000000 0.000000
					}
				}
			}
		}
	}
}
MOTION
Frames: 8
Frame Time: 0.041667
-18.328291 9.217526 44.102192 -175.788047 -1.646563 -175.887160 2.851774 -3.660554 -5.208506 -1.117611 -3.852133 4.891257 0.000000 0.000000 0.000000 -1.161215 4.181538 -8.425173 5.207241 7.314908 -50.340499 0.498242 16.518999 -1.679670 -13.074700 -3.574420 -33.313499 0.000000 -21.286200 0.000000 29.367201 8.382160 21.843399 7.634930 -10.124900 -1.201390 11.135600 -1.887840 -37.039799 0.000000 18.265400 0.000000 -15.422800 -1.770760 25.623800 4.386911 -1.973823 -3.895255 0.000000 0.000000 7.487070 -3.300459 0.050677 6.597152 0.000000 0.000000 -28.408400 4.320728 1.151097 -0.433153 0.000000 0.000000 6.090290 6.139164 -8.313672 9.210317 0.000000 0.000000 -28.237700 
-18.327860 9.217275 44.098711 -175.790155 -1.646411 -175.890725 2.852492 -3.658182 -5.219144 -1.120422 -3.850229 4.861769 0.000000 0.000000 0.000000 -1.174053 4.174144 -8.378340 5.207974 7.284769 -50.275978 0.533469 16.515699 -1.701680 -13.161500 -3.568270 -33.374500 0.000000 -21.288099 0.000000 29.405500 8.348650 21.935801 7.541960 -10.297700 -1.209070 11.239600 -1.708850 -36.991199 0.000000 18.279499 0.000000 -15.432400 -1.783990 25.645700 4.386276 -2.009467 -3.867422 0.000000 0.000000 7.493430 -3.287257 0.097100 6.587199 0.000000 0.000000 -28.661900 4.322556 1.154901 -0.409019 0.000000 0.000000 6.091840 6.127597 -8.318838 9.195417 0.000000 0.000000 -28.245700 
-18.327198 9.217155 44.094121 -175.794336 -1.628988 -175.902496 2.853517 -3.655615 -5.215231 -1.136812 -3.848776 4.806907 0.000000 0.000000 0.000000 -1.209924 4.200753 -8.254471 5.180230 7.286437 -50.269710 0.529639 16.530701 -1.699470 -13.169500 -3.561180 -33.376701 0.000000 -21.299400 0.000000 29.386200 8.369210 21.907301 7.538220 -10.304100 -1.177110 11.246500 -1.720120 -37.074100 0.000000 18.338100 0.000000 -15.458000 -1.868900 25.674200 4.381921 -1.949644 -3.819034 0.000000 0.000000 7.484520 -3.291024 0.060334 6.577094 0.000000 0.000000 -28.675100 4.323958 1.205564 -0.377464 0.000000 0.000000 6.108480 6.146295 -8.347513 9.163392 0.000000 0.000000 -28.233700 
-18.326741 9.216992 44.088651 -175.799482 -1.598383 -175.921247 2.851824 -3.648289 -5.243817 -1.157226 -3.841217 4.809650 0.000000 0.000000 0.000000 -1.248640 4.235216 -8.145188 5.156603 7.294173 -50.261821 0.516697 16.521900 -1.698920 -13.151100 -3.520700 -33.301899 0.000000 -21.307199 0.000000 29.422400 8.370490 21.913300 7.542860 -10.321300 -1.195140 11.237400 -1.709320 -37.104000 0.000000 18.350401 0.000000 -15.454900 -1.834410 25.726000 4.376160 -1.919647 -3.739702 0.000000 0.000000 7.445660 -3.292694 0.058170 6.566984 0.000000 0.000000 -28.671700 4.321984 1.233370 -0.322245 0.000000 0.000000 6.096580 6.139173 -8.351588 9.155077 0.000000 0.000000 -28.266800 
-18.326332 9.216691 44.083708 -175.804459 -1.577241 -175.921847 2.888878 -3.622073 -5.260067 -1.251212 -3.822048 4.758929 0.000000 0.000000 0.000000 -1.236410 4.239123 -8.060444 5.187369 7.294074 -50.239576 0.557725 16.497900 -1.673030 -13.152100 -3.502420 -33.321800 0.000000 -21.312000 0.000000 29.451700 8.364800 21.944700 7.583400 -10.362000 -1.163080 11.222200 -1.703220 -37.097698 0.000000 18.368000 0.000000 -15.483500 -1.882620 25.724400 4.372128 -1.926740 -3.690369 0.000000 0.000000 7.421850 -3.290940 0.083494 6.545367 0.000000 0.000000 -28.665900 4.319280 1.251584 -0.287077 0.000000 0.000000 6.085250 6.137369 -8.351017 9.136643 0.000000 0.000000 -28.257500 
-18.326024 9.216404 44.078272 -175.804157 -1.549744 -175.942096 2.887907 -3.622746 -5.284821 -1.260474 -3.822416 4.764383 0.000000 0.000000 0.000000 -1.269530 4.244758 -8.005436 5.193806 7.269269 -50.240458 0.555685 16.526100 -1.680130 -13.178800 -3.479410 -33.329601 0.000000 -21.304800 0.000000 29.453600 8.279270 21.897900 7.576250 -10.355100 -1.146650 11.206000 -1.697150 -37.035400 0.000000 18.365499 0.000000 -15.503700 -1.893840 25.752199 4.371196 -1.917060 -3.619869 0.000000 0.000000 7.405370 -3.287086 0.099627 6.518840 0.000000 0.000000 -28.641700 4.322574 1.268020 -0.227119 0.000000 0.000000 6.070750 6.145937 -8.346965 9.119553 0.000000 0.000000 -28.251400 
-18.325971 9.216147 44.073195 -175.804325 -1.524685 -175.945004 2.882633 -3.613894 -5.327344 -1.266956 -3.812323 4.781916 0.000000 0.000000 0.000000 -1.267556 4.241722 -7.945608 5.146649 7.280998 -50.275398 0.527973 16.545200 -1.715210 -13.154000 -3.496750 -33.314201 0.000000 -21.266701 0.000000 29.510200 8.350620 21.979900 7.576910 -10.359300 -1.141860 11.190300 -1.705780 -36.990898 0.000000 18.365999 0.000000 -15.483600 -1.931280 25.715599 4.367962 -1.903503 -3.578887 0.000000 0.000000 7.405650 -3.295975 0.110550 6.484362 0.000000 0.000000 -28.610400 4.324296 1.234254 -0.183097 0.000000 0.000000 6.048250 6.109086 -8.315971 9.112881 0.000000 0.000000 -28.232000 
-18.326011 9.215967 44.068157 -175.803777 -1.489413 -175.957568 2.849726 -3.628935 -5.380180 -1.222046 -3.820821 4.839362 0.000000 0.000000 0.000000 -1.308359 4.243178 -7.956892 5.158182 7.243091 -50.249193 0.464057 16.561501 -1.732990 -13.113600 -3.434820 -33.232101 0.000000 -21.272800 0.000000 29.542801 8.426860 21.973600 7.558100 -10.295800 -1.127230 11.188900 -1.729440 -37.061600 0.000000 18.389500 0.000000 -15.467500 -1.983470 25.764700 4.364892 -1.898096 -3.519273 0.000000 0.000000 7.389920 -3.298622 0.137235 6.467689 0.000000 0.000000 -28.618700 4.323217 1.236996 -0.141868 0.000000 0.000000 6.044290 6.106616 -8.292861 9.106497 0.000000 0.000000 -28.241700 
